<svg xmlns="http://www.w3.org/2000/svg" viewBox="0 0 64 64" role="img" aria-labelledby="title desc">
  <title id="title">WhatsApp</title>
  <desc id="desc">Logo WhatsApp vettoriale</desc>
  <circle cx="32" cy="32" r="30" fill="#25D366"/>
  <path fill="#fff" d="M18.2 47.2 20.4 39A15.4 15.4 0 1 1 33.7 46h-.1a15.4 15.4 0 0 1-7.4-1.9l-8 3.1Zm8.4-8.9.5.3a12.8 12.8 0 1 0-4.5-4.5l.3.5-1.3 4.9 5-1.2Z"/>
  <path fill="#fff" d="M40.7 35.8c-.4-.2-2.5-1.2-2.9-1.4-.4-.1-.7-.2-1 .2-.3.4-1.1 1.4-1.4 1.7-.2.3-.5.3-.9.1-.4-.2-1.7-.6-3.3-2-1.2-1.1-2-2.4-2.3-2.8-.2-.4 0-.7.2-.9.2-.2.4-.5.6-.7.2-.2.3-.4.4-.7.1-.3.1-.5 0-.7-.1-.2-1-2.4-1.4-3.3-.4-.9-.7-.8-1-.8h-.8c-.3 0-.7.1-1.1.5-.4.4-1.5 1.5-1.5 3.6 0 2.1 1.6 4.2 1.8 4.5.2.3 3.1 4.8 7.6 6.7 1.1.5 1.9.8 2.6 1 .9.3 1.7.2 2.3.1.7-.1 2.5-1 2.9-2 .4-1 .4-1.8.3-2-.2-.2-.5-.3-.9-.5Z"/>
</svg>
