<svg xmlns="http://www.w3.org/2000/svg" viewBox="0 0 1200 800">
  <defs>
    <linearGradient id="bg" x1="0" x2="1" y1="0" y2="1"><stop stop-color="#07111f"/><stop offset="1" stop-color="#12345a"/></linearGradient>
    <linearGradient id="a" x1="0" x2="1"><stop stop-color="#67e8f9"/><stop offset="1" stop-color="#2563eb"/></linearGradient>
  </defs>
  <rect width="1200" height="800" rx="48" fill="url(#bg)"/>
  <g opacity=".14" stroke="#e0f2fe" stroke-width="2"><path d="M0 150h1200M0 300h1200M0 450h1200M0 600h1200"/><path d="M170 0v800M370 0v800M570 0v800M770 0v800M970 0v800"/></g>
  <g transform="translate(190 120)">
    <rect width="820" height="480" rx="42" fill="#0b1729" stroke="#334155" stroke-width="8"/>
    <rect x="58" y="68" width="704" height="250" rx="26" fill="#101f36"/>
    <g fill="#1e3a5f" stroke="#38bdf8" stroke-width="4">
      <rect x="95" y="105" width="115" height="170" rx="14"/><rect x="230" y="105" width="115" height="170" rx="14"/>
      <rect x="365" y="105" width="115" height="170" rx="14"/><rect x="500" y="105" width="115" height="170" rx="14"/>
      <rect x="635" y="105" width="85" height="170" rx="14"/>
    </g>
    <g fill="url(#a)"><circle cx="125" cy="140" r="10"/><circle cx="260" cy="140" r="10"/><circle cx="395" cy="140" r="10"/><circle cx="530" cy="140" r="10"/><circle cx="665" cy="140" r="10"/></g>
    <path d="M115 374h590M115 420h430" stroke="#67e8f9" stroke-width="14" stroke-linecap="round" opacity=".85"/>
    <circle cx="670" cy="405" r="44" fill="url(#a)"/>
  </g>
  <text x="86" y="710" fill="#e0f2fe" font-family="Arial, sans-serif" font-size="54" font-weight="700">Programmazione PLC e HMI</text>
</svg>
